<?xml version="1.0" encoding="UTF-8"?>
<svg width="632px" height="192px" viewBox="0 0 632 192" version="1.1" xmlns="http://www.w3.org/2000/svg" xmlns:xlink="http://www.w3.org/1999/xlink">
    <!-- Generator: Sketch 42 (36781) - http://www.bohemiancoding.com/sketch -->
    <title>GRAND VITARA</title>
    <desc>Created with Sketch.</desc>
    <defs></defs>
    <g id="Page-1" stroke="none" stroke-width="1" fill="none" fill-rule="evenodd">
        <g id="RAW-(Typography)-Copy" transform="translate(-254.000000, -1289.000000)" fill="#484848">
            <path d="M437.29,1332.46 C438.923341,1332.46 440.369994,1332.32 441.63,1332.04 C442.890006,1331.76 444.079994,1331.38667 445.2,1330.92 L445.2,1323.185 L440.16,1323.185 C439.41333,1323.185 438.830002,1322.98667 438.41,1322.59 C437.989998,1322.19333 437.78,1321.69167 437.78,1321.085 L437.78,1314.575 L455.91,1314.575 L455.91,1336.1 C454.603327,1337.05667 453.244174,1337.87916 451.8325,1338.5675 C450.420826,1339.25584 448.915841,1339.82166 447.3175,1340.265 C445.719159,1340.70834 444.015842,1341.035 442.2075,1341.245 C440.399158,1341.455 438.456677,1341.56 436.38,1341.56 C432.646648,1341.56 429.193349,1340.90084 426.02,1339.5825 C422.846651,1338.26416 420.099178,1336.44418 417.7775,1334.1225 C415.455822,1331.80082 413.63584,1329.04752 412.3175,1325.8625 C410.99916,1322.67748 410.34,1319.21835 410.34,1315.485 C410.34,1311.68165 410.969994,1308.18752 412.23,1305.0025 C413.490006,1301.81748 415.292488,1299.07001 417.6375,1296.76 C419.982512,1294.44999 422.817483,1292.65334 426.1425,1291.37 C429.467517,1290.08666 433.183313,1289.445 437.29,1289.445 C439.413344,1289.445 441.408324,1289.62 443.275,1289.97 C445.141676,1290.32 446.862492,1290.79833 448.4375,1291.405 C450.012508,1292.01167 451.453327,1292.735 452.76,1293.575 C454.066673,1294.415 455.233328,1295.325 456.26,1296.305 L452.83,1301.52 C452.503332,1302.01 452.112502,1302.395 451.6575,1302.675 C451.202498,1302.955 450.706669,1303.095 450.17,1303.095 C449.469996,1303.095 448.74667,1302.86167 448,1302.395 C447.066662,1301.835 446.185837,1301.35084 445.3575,1300.9425 C444.529163,1300.53416 443.683338,1300.20167 442.82,1299.945 C441.956662,1299.68833 441.046671,1299.50167 440.09,1299.385 C439.133329,1299.26833 438.060006,1299.21 436.87,1299.21 C434.653322,1299.21 432.658342,1299.60083 430.885,1300.3825 C429.111658,1301.16417 427.60084,1302.26666 426.3525,1303.69 C425.10416,1305.11334 424.14167,1306.82249 423.465,1308.8175 C422.78833,1310.81251 422.45,1313.03499 422.45,1315.485 C422.45,1318.19168 422.82333,1320.59499 423.57,1322.695 C424.31667,1324.79501 425.34916,1326.56833 426.6675,1328.015 C427.98584,1329.46167 429.549158,1330.56416 431.3575,1331.3225 C433.165842,1332.08084 435.143323,1332.46 437.29,1332.46 Z M488.75,1322.135 L488.75,1341 L476.92,1341 L476.92,1290.005 L493.51,1290.005 C497.196685,1290.005 500.34082,1290.38416 502.9425,1291.1425 C505.54418,1291.90084 507.667492,1292.95666 509.3125,1294.31 C510.957508,1295.66334 512.15333,1297.26166 512.9,1299.105 C513.64667,1300.94834 514.02,1302.95499 514.02,1305.125 C514.02,1306.78167 513.798336,1308.34499 513.355,1309.815 C512.911664,1311.28501 512.252504,1312.64416 511.3775,1313.8925 C510.502496,1315.14084 509.429173,1316.255 508.1575,1317.235 C506.885827,1318.215 505.421675,1319.02 503.765,1319.65 C504.558337,1320.04667 505.299163,1320.53666 505.9875,1321.12 C506.675837,1321.70334 507.276664,1322.415 507.79,1323.255 L518.64,1341 L507.93,1341 C505.946657,1341 504.523338,1340.25334 503.66,1338.76 L495.19,1323.955 C494.816665,1323.30166 494.379169,1322.835 493.8775,1322.555 C493.375831,1322.275 492.670005,1322.135 491.76,1322.135 L488.75,1322.135 Z M488.75,1313.98 L493.51,1313.98 C495.120008,1313.98 496.490828,1313.77584 497.6225,1313.3675 C498.754172,1312.95916 499.681663,1312.39334 500.405,1311.67 C501.128337,1310.94666 501.653332,1310.10084 501.98,1309.1325 C502.306668,1308.16416 502.47,1307.12001 502.47,1306 C502.47,1303.75999 501.740841,1302.01001 500.2825,1300.75 C498.824159,1299.48999 496.566682,1298.86 493.51,1298.86 L488.75,1298.86 L488.75,1313.98 Z M584.73,1341 L575.56,1341 C574.533328,1341 573.687503,1340.76084 573.0225,1340.2825 C572.357497,1339.80416 571.896668,1339.19167 571.64,1338.445 L568.63,1329.555 L549.24,1329.555 L546.23,1338.445 C545.996665,1339.09834 545.54167,1339.6875 544.865,1340.2125 C544.18833,1340.7375 543.360005,1341 542.38,1341 L533.14,1341 L552.88,1290.005 L564.99,1290.005 L584.73,1341 Z M551.97,1321.505 L565.9,1321.505 L561.21,1307.54 C560.906665,1306.65333 560.550835,1305.60917 560.1425,1304.4075 C559.734165,1303.20583 559.331669,1301.90501 558.935,1300.505 C558.561665,1301.92834 558.176669,1303.24666 557.78,1304.46 C557.383331,1305.67334 557.010002,1306.72333 556.66,1307.61 L551.97,1321.505 Z M608.89,1290.005 C609.403336,1290.005 609.834998,1290.02833 610.185,1290.075 C610.535002,1290.12167 610.849999,1290.20917 611.13,1290.3375 C611.410001,1290.46583 611.678332,1290.64667 611.935,1290.88 C612.191668,1291.11333 612.483332,1291.42833 612.81,1291.825 L637.03,1322.45 C636.936666,1321.47 636.866667,1320.51917 636.82,1319.5975 C636.773333,1318.67583 636.75,1317.80667 636.75,1316.99 L636.75,1290.005 L647.18,1290.005 L647.18,1341 L641.02,1341 C640.109995,1341 639.340003,1340.86 638.71,1340.58 C638.079997,1340.3 637.473336,1339.78667 636.89,1339.04 L612.845,1308.66 C612.915,1309.54667 612.973333,1310.41583 613.02,1311.2675 C613.066667,1312.11917 613.09,1312.91833 613.09,1313.665 L613.09,1341 L602.66,1341 L602.66,1290.005 L608.89,1290.005 Z M715.65,1315.485 C715.65,1319.17169 715.014173,1322.57248 713.7425,1325.6875 C712.470827,1328.80252 710.680012,1331.49749 708.37,1333.7725 C706.059988,1336.04751 703.277516,1337.82083 700.0225,1339.0925 C696.767484,1340.36417 693.156686,1341 689.19,1341 L669.38,1341 L669.38,1290.005 L689.19,1290.005 C693.156686,1290.005 696.767484,1290.64666 700.0225,1291.93 C703.277516,1293.21334 706.059988,1294.98666 708.37,1297.25 C710.680012,1299.51334 712.470827,1302.20248 713.7425,1305.3175 C715.014173,1308.43252 715.65,1311.82165 715.65,1315.485 Z M703.54,1315.485 C703.54,1312.96499 703.213337,1310.69001 702.56,1308.66 C701.906663,1306.62999 700.967506,1304.90917 699.7425,1303.4975 C698.517494,1302.08583 697.018342,1301.00084 695.245,1300.2425 C693.471658,1299.48416 691.453345,1299.105 689.19,1299.105 L681.28,1299.105 L681.28,1331.9 L689.19,1331.9 C691.453345,1331.9 693.471658,1331.52084 695.245,1330.7625 C697.018342,1330.00416 698.517494,1328.91917 699.7425,1327.5075 C700.967506,1326.09583 701.906663,1324.37501 702.56,1322.345 C703.213337,1320.31499 703.54,1318.02835 703.54,1315.485 Z M254.225,1357.155 L277.345,1357.155 C279.838346,1357.155 281.878325,1357.72166 283.465,1358.855 C285.051675,1359.98834 286.184997,1361.48999 286.865,1363.36 L310.835,1429.66 C311.911672,1432.55001 313.002494,1435.69498 314.1075,1439.095 C315.212506,1442.49502 316.246662,1446.06498 317.21,1449.805 C318.003337,1446.06498 318.924161,1442.49502 319.9725,1439.095 C321.020839,1435.69498 322.054995,1432.55001 323.075,1429.66 L346.875,1363.36 C347.441669,1361.77333 348.546658,1360.34251 350.19,1359.0675 C351.833342,1357.79249 353.844988,1357.155 356.225,1357.155 L379.515,1357.155 L329.875,1481 L303.865,1481 L254.225,1357.155 Z M421.165,1481 L392.265,1481 L392.265,1357.155 L421.165,1357.155 L421.165,1481 Z M534.045,1357.155 L534.045,1379.935 L499.195,1379.935 L499.195,1481 L470.465,1481 L470.465,1379.935 L435.615,1379.935 L435.615,1357.155 L534.045,1357.155 Z M647.605,1481 L625.335,1481 C622.841654,1481 620.787508,1480.41917 619.1725,1479.2575 C617.557492,1478.09583 616.438336,1476.60834 615.815,1474.795 L608.505,1453.205 L561.415,1453.205 L554.105,1474.795 C553.538331,1476.38167 552.433342,1477.81249 550.79,1479.0875 C549.146658,1480.36251 547.135012,1481 544.755,1481 L522.315,1481 L570.255,1357.155 L599.665,1357.155 L647.605,1481 Z M568.045,1433.655 L601.875,1433.655 L590.485,1399.74 C589.74833,1397.58666 588.884172,1395.05085 587.8925,1392.1325 C586.900828,1389.21415 585.923338,1386.05502 584.96,1382.655 C584.053329,1386.11168 583.118338,1389.31332 582.155,1392.26 C581.191662,1395.20668 580.285004,1397.75666 579.435,1399.91 L568.045,1433.655 Z M686.365,1435.185 L686.365,1481 L657.635,1481 L657.635,1357.155 L697.925,1357.155 C706.878378,1357.155 714.514135,1358.07582 720.8325,1359.9175 C727.150865,1361.75918 732.30748,1364.32332 736.3025,1367.61 C740.29752,1370.89668 743.201658,1374.77831 745.015,1379.255 C746.828342,1383.73169 747.735,1388.60497 747.735,1393.875 C747.735,1397.89835 747.196672,1401.69498 746.12,1405.265 C745.043328,1408.83502 743.442511,1412.13582 741.3175,1415.1675 C739.192489,1418.19918 736.585849,1420.90499 733.4975,1423.285 C730.409151,1425.66501 726.853353,1427.61999 722.83,1429.15 C724.756676,1430.11334 726.555825,1431.30333 728.2275,1432.72 C729.899175,1434.13667 731.358327,1435.86499 732.605,1437.905 L758.955,1481 L732.945,1481 C728.128309,1481 724.671677,1479.18668 722.575,1475.56 L702.005,1439.605 C701.098329,1438.01833 700.035839,1436.885 698.8175,1436.205 C697.599161,1435.525 695.885011,1435.185 693.675,1435.185 L686.365,1435.185 Z M686.365,1415.38 L697.925,1415.38 C701.83502,1415.38 705.164153,1414.88417 707.9125,1413.8925 C710.660847,1412.90083 712.913325,1411.52668 714.67,1409.77 C716.426675,1408.01332 717.701663,1405.95918 718.495,1403.6075 C719.288337,1401.25582 719.685,1398.72001 719.685,1396 C719.685,1390.55997 717.914184,1386.31002 714.3725,1383.25 C710.830816,1380.18998 705.34837,1378.66 697.925,1378.66 L686.365,1378.66 L686.365,1415.38 Z M885.945,1481 L863.675,1481 C861.181654,1481 859.127508,1480.41917 857.5125,1479.2575 C855.897492,1478.09583 854.778336,1476.60834 854.155,1474.795 L846.845,1453.205 L799.755,1453.205 L792.445,1474.795 C791.878331,1476.38167 790.773342,1477.81249 789.13,1479.0875 C787.486658,1480.36251 785.475012,1481 783.095,1481 L760.655,1481 L808.595,1357.155 L838.005,1357.155 L885.945,1481 Z M806.385,1433.655 L840.215,1433.655 L828.825,1399.74 C828.08833,1397.58666 827.224172,1395.05085 826.2325,1392.1325 C825.240828,1389.21415 824.263338,1386.05502 823.3,1382.655 C822.393329,1386.11168 821.458338,1389.31332 820.495,1392.26 C819.531662,1395.20668 818.625004,1397.75666 817.775,1399.91 L806.385,1433.655 Z" id="GRAND-VITARA"></path>
        </g>
    </g>
</svg>