<?xml version="1.0" encoding="UTF-8"?>
<svg width="632px" height="191px" viewBox="0 0 632 191" version="1.1" xmlns="http://www.w3.org/2000/svg" xmlns:xlink="http://www.w3.org/1999/xlink">
    <!-- Generator: Sketch 42 (36781) - http://www.bohemiancoding.com/sketch -->
    <title>NUEVA VITARA</title>
    <desc>Created with Sketch.</desc>
    <defs></defs>
    <g id="Page-1" stroke="none" stroke-width="1" fill="none" fill-rule="evenodd">
        <g id="RAW-(Typography)-Copy" transform="translate(-254.000000, -819.000000)" fill="#484848">
            <path d="M426.195,819.005 C426.708336,819.005 427.139998,819.028333 427.49,819.075 C427.840002,819.121667 428.154999,819.209166 428.435,819.3375 C428.715001,819.465834 428.983332,819.646665 429.24,819.88 C429.496668,820.113335 429.788332,820.428331 430.115,820.825 L454.335,851.45 C454.241666,850.469995 454.171667,849.519171 454.125,848.5975 C454.078333,847.675829 454.055,846.806671 454.055,845.99 L454.055,819.005 L464.485,819.005 L464.485,870 L458.325,870 C457.414995,870 456.645003,869.860001 456.015,869.58 C455.384997,869.299999 454.778336,868.78667 454.195,868.04 L430.15,837.66 C430.22,838.546671 430.278333,839.415829 430.325,840.2675 C430.371667,841.119171 430.395,841.91833 430.395,842.665 L430.395,870 L419.965,870 L419.965,819.005 L426.195,819.005 Z M507.895,860.655 C509.481675,860.655 510.89916,860.392503 512.1475,859.8675 C513.39584,859.342497 514.451662,858.590005 515.315,857.61 C516.178338,856.629995 516.837498,855.434174 517.2925,854.0225 C517.747502,852.610826 517.975,851.006676 517.975,849.21 L517.975,819.005 L529.805,819.005 L529.805,849.21 C529.805,852.336682 529.297505,855.206654 528.2825,857.82 C527.267495,860.433346 525.815009,862.684991 523.925,864.575 C522.034991,866.465009 519.73668,867.934995 517.03,868.985 C514.32332,870.035005 511.27835,870.56 507.895,870.56 C504.488316,870.56 501.43168,870.035005 498.725,868.985 C496.01832,867.934995 493.720009,866.465009 491.83,864.575 C489.939991,862.684991 488.493338,860.433346 487.49,857.82 C486.486662,855.206654 485.985,852.336682 485.985,849.21 L485.985,819.005 L497.815,819.005 L497.815,849.175 C497.815,850.971676 498.042498,852.575826 498.4975,853.9875 C498.952502,855.399174 499.611662,856.600828 500.475,857.5925 C501.338338,858.584172 502.39416,859.342497 503.6425,859.8675 C504.89084,860.392503 506.308325,860.655 507.895,860.655 Z M584.135,819.005 L584.135,828.105 L563.205,828.105 L563.205,840.005 L579.235,840.005 L579.235,848.755 L563.205,848.755 L563.205,860.9 L584.135,860.9 L584.135,870 L551.305,870 L551.305,819.005 L584.135,819.005 Z M600.455,819.005 L609.975,819.005 C611.001672,819.005 611.841663,819.238331 612.495,819.705 C613.148337,820.171669 613.614999,820.789996 613.895,821.56 L623.765,848.86 C624.208336,850.050006 624.657498,851.344993 625.1125,852.745 C625.567502,854.145007 625.993331,855.614992 626.39,857.155 C626.716668,855.614992 627.095831,854.145007 627.5275,852.745 C627.959169,851.344993 628.384998,850.050006 628.805,848.86 L638.605,821.56 C638.838334,820.906663 639.29333,820.317503 639.97,819.7925 C640.64667,819.267497 641.474995,819.005 642.455,819.005 L652.045,819.005 L631.605,870 L620.895,870 L600.455,819.005 Z M710.505,870 L701.335,870 C700.308328,870 699.462503,869.760836 698.7975,869.2825 C698.132497,868.804164 697.671668,868.19167 697.415,867.445 L694.405,858.555 L675.015,858.555 L672.005,867.445 C671.771665,868.098337 671.31667,868.687497 670.64,869.2125 C669.96333,869.737503 669.135005,870 668.155,870 L658.915,870 L678.655,819.005 L690.765,819.005 L710.505,870 Z M677.745,850.505 L691.675,850.505 L686.985,836.54 C686.681665,835.653329 686.325835,834.609173 685.9175,833.4075 C685.509165,832.205827 685.106669,830.905007 684.71,829.505 C684.336665,830.92834 683.951669,832.246661 683.555,833.46 C683.158331,834.673339 682.785002,835.723329 682.435,836.61 L677.745,850.505 Z M254.225,886.155 L277.345,886.155 C279.838346,886.155 281.878325,886.721661 283.465,887.855 C285.051675,888.988339 286.184997,890.489991 286.865,892.36 L310.835,958.66 C311.911672,961.550014 313.002494,964.694983 314.1075,968.095 C315.212506,971.495017 316.246662,975.064981 317.21,978.805 C318.003337,975.064981 318.924161,971.495017 319.9725,968.095 C321.020839,964.694983 322.054995,961.550014 323.075,958.66 L346.875,892.36 C347.441669,890.773325 348.546658,889.342506 350.19,888.0675 C351.833342,886.792494 353.844988,886.155 356.225,886.155 L379.515,886.155 L329.875,1010 L303.865,1010 L254.225,886.155 Z M421.165,1010 L392.265,1010 L392.265,886.155 L421.165,886.155 L421.165,1010 Z M534.045,886.155 L534.045,908.935 L499.195,908.935 L499.195,1010 L470.465,1010 L470.465,908.935 L435.615,908.935 L435.615,886.155 L534.045,886.155 Z M647.605,1010 L625.335,1010 C622.841654,1010 620.787508,1009.41917 619.1725,1008.2575 C617.557492,1007.09583 616.438336,1005.60834 615.815,1003.795 L608.505,982.205 L561.415,982.205 L554.105,1003.795 C553.538331,1005.38167 552.433342,1006.81249 550.79,1008.0875 C549.146658,1009.36251 547.135012,1010 544.755,1010 L522.315,1010 L570.255,886.155 L599.665,886.155 L647.605,1010 Z M568.045,962.655 L601.875,962.655 L590.485,928.74 C589.74833,926.586656 588.884172,924.050848 587.8925,921.1325 C586.900828,918.214152 585.923338,915.055017 584.96,911.655 C584.053329,915.111684 583.118338,918.313319 582.155,921.26 C581.191662,924.206681 580.285004,926.756656 579.435,928.91 L568.045,962.655 Z M686.365,964.185 L686.365,1010 L657.635,1010 L657.635,886.155 L697.925,886.155 C706.878378,886.155 714.514135,887.075824 720.8325,888.9175 C727.150865,890.759176 732.30748,893.323317 736.3025,896.61 C740.29752,899.896683 743.201658,903.778311 745.015,908.255 C746.828342,912.731689 747.735,917.604974 747.735,922.875 C747.735,926.898353 747.196672,930.694982 746.12,934.265 C745.043328,937.835018 743.442511,941.135818 741.3175,944.1675 C739.192489,947.199182 736.585849,949.904988 733.4975,952.285 C730.409151,954.665012 726.853353,956.619992 722.83,958.15 C724.756676,959.113338 726.555825,960.303326 728.2275,961.72 C729.899175,963.136674 731.358327,964.86499 732.605,966.905 L758.955,1010 L732.945,1010 C728.128309,1010 724.671677,1008.18668 722.575,1004.56 L702.005,968.605 C701.098329,967.018325 700.035839,965.885003 698.8175,965.205 C697.599161,964.524997 695.885011,964.185 693.675,964.185 L686.365,964.185 Z M686.365,944.38 L697.925,944.38 C701.83502,944.38 705.164153,943.884172 707.9125,942.8925 C710.660847,941.900828 712.913325,940.526675 714.67,938.77 C716.426675,937.013325 717.701663,934.959178 718.495,932.6075 C719.288337,930.255822 719.685,927.720014 719.685,925 C719.685,919.559973 717.914184,915.310015 714.3725,912.25 C710.830816,909.189985 705.34837,907.66 697.925,907.66 L686.365,907.66 L686.365,944.38 Z M885.945,1010 L863.675,1010 C861.181654,1010 859.127508,1009.41917 857.5125,1008.2575 C855.897492,1007.09583 854.778336,1005.60834 854.155,1003.795 L846.845,982.205 L799.755,982.205 L792.445,1003.795 C791.878331,1005.38167 790.773342,1006.81249 789.13,1008.0875 C787.486658,1009.36251 785.475012,1010 783.095,1010 L760.655,1010 L808.595,886.155 L838.005,886.155 L885.945,1010 Z M806.385,962.655 L840.215,962.655 L828.825,928.74 C828.08833,926.586656 827.224172,924.050848 826.2325,921.1325 C825.240828,918.214152 824.263338,915.055017 823.3,911.655 C822.393329,915.111684 821.458338,918.313319 820.495,921.26 C819.531662,924.206681 818.625004,926.756656 817.775,928.91 L806.385,962.655 Z" id="NUEVA-VITARA"></path>
        </g>
    </g>
</svg>