<?xml version="1.0" encoding="UTF-8"?>
<svg width="390px" height="128px" viewBox="0 0 390 128" version="1.1" xmlns="http://www.w3.org/2000/svg" xmlns:xlink="http://www.w3.org/1999/xlink">
    <!-- Generator: Sketch 42 (36781) - http://www.bohemiancoding.com/sketch -->
    <title>CIAZ</title>
    <desc>Created with Sketch.</desc>
    <defs></defs>
    <g id="Page-1" stroke="none" stroke-width="1" fill="none" fill-rule="evenodd">
        <g id="Vector" transform="translate(-1514.000000, -370.000000)" fill="#484848">
            <path d="M1604.875,463.955 C1605.555,463.955 1606.235,464.082499 1606.915,464.3375 C1607.595,464.592501 1608.24666,465.031664 1608.87,465.655 L1620.26,477.64 C1615.27331,484.156699 1609.02587,489.072483 1601.5175,492.3875 C1594.00913,495.702517 1585.12672,497.36 1574.87,497.36 C1565.46329,497.36 1557.0342,495.759183 1549.5825,492.5575 C1542.1308,489.355817 1535.81253,484.935862 1530.6275,479.2975 C1525.44247,473.659138 1521.46168,466.972539 1518.685,459.2375 C1515.90832,451.502461 1514.52,443.101712 1514.52,434.035 C1514.52,424.798287 1516.10665,416.312539 1519.28,408.5775 C1522.45335,400.842461 1526.88747,394.170028 1532.5825,388.56 C1538.27753,382.949972 1545.09163,378.586682 1553.025,375.47 C1560.95837,372.353318 1569.71329,370.795 1579.29,370.795 C1583.93669,370.795 1588.31415,371.205829 1592.4225,372.0275 C1596.53085,372.849171 1600.36998,373.982493 1603.94,375.4275 C1607.51002,376.872507 1610.79665,378.600823 1613.8,380.6125 C1616.80335,382.624177 1619.46666,384.848321 1621.79,387.285 L1612.1,400.29 C1611.47666,401.083337 1610.74,401.80583 1609.89,402.4575 C1609.04,403.10917 1607.85001,403.435 1606.32,403.435 C1605.29999,403.435 1604.33667,403.208336 1603.43,402.755 C1602.52333,402.301664 1601.56001,401.74917 1600.54,401.0975 C1599.51999,400.44583 1598.40084,399.737504 1597.1825,398.9725 C1595.96416,398.207496 1594.51918,397.49917 1592.8475,396.8475 C1591.17582,396.19583 1589.22084,395.643336 1586.9825,395.19 C1584.74416,394.736664 1582.12335,394.51 1579.12,394.51 C1573.90664,394.51 1569.14669,395.430824 1564.84,397.2725 C1560.53331,399.114176 1556.83585,401.74915 1553.7475,405.1775 C1550.65915,408.60585 1548.25084,412.756642 1546.5225,417.63 C1544.79416,422.503358 1543.93,427.971636 1543.93,434.035 C1543.93,440.381698 1544.79416,446.019975 1546.5225,450.95 C1548.25084,455.880025 1550.60249,460.030816 1553.5775,463.4025 C1556.55251,466.774184 1560.02331,469.338325 1563.99,471.095 C1567.95669,472.851675 1572.20664,473.73 1576.74,473.73 C1579.34668,473.73 1581.72666,473.602501 1583.88,473.3475 C1586.03334,473.092499 1588.03082,472.653336 1589.8725,472.03 C1591.71418,471.406664 1593.47082,470.599172 1595.1425,469.6075 C1596.81418,468.615828 1598.49999,467.383341 1600.2,465.91 C1600.88,465.343331 1601.61666,464.875835 1602.41,464.5075 C1603.20334,464.139165 1604.025,463.955 1604.875,463.955 Z M1664.8,496 L1635.9,496 L1635.9,372.155 L1664.8,372.155 L1664.8,496 Z M1803.01,496 L1780.74,496 C1778.24665,496 1776.19251,495.419172 1774.5775,494.2575 C1772.96249,493.095828 1771.84334,491.608342 1771.22,489.795 L1763.91,468.205 L1716.82,468.205 L1709.51,489.795 C1708.94333,491.381675 1707.83834,492.812494 1706.195,494.0875 C1704.55166,495.362506 1702.54001,496 1700.16,496 L1677.72,496 L1725.66,372.155 L1755.07,372.155 L1803.01,496 Z M1723.45,448.655 L1757.28,448.655 L1745.89,414.74 C1745.15333,412.586656 1744.28917,410.050848 1743.2975,407.1325 C1742.30583,404.214152 1741.32834,401.055017 1740.365,397.655 C1739.45833,401.111684 1738.52334,404.313319 1737.56,407.26 C1736.59666,410.206681 1735.69,412.756656 1734.84,414.91 L1723.45,448.655 Z M1903.65,372.155 L1903.65,382.525 C1903.65,383.998341 1903.40917,385.443326 1902.9275,386.86 C1902.44583,388.276674 1901.78,389.608327 1900.93,390.855 L1842.79,473.9 L1901.78,473.9 L1901.78,496 L1806.24,496 L1806.24,484.95 C1806.24,483.64666 1806.46666,482.357506 1806.92,481.0825 C1807.37334,479.807494 1807.99666,478.631672 1808.79,477.555 L1867.1,394.255 L1811,394.255 L1811,372.155 L1903.65,372.155 Z" id="CIAZ"></path>
        </g>
    </g>
</svg>