<?xml version="1.0" encoding="UTF-8"?>
<svg width="544px" height="194px" viewBox="0 0 544 194" version="1.1" xmlns="http://www.w3.org/2000/svg" xmlns:xlink="http://www.w3.org/1999/xlink">
    <!-- Generator: Sketch 42 (36781) - http://www.bohemiancoding.com/sketch -->
    <title>SWIFT SPORT</title>
    <desc>Created with Sketch.</desc>
    <defs></defs>
    <g id="Page-1" stroke="none" stroke-width="1" fill="none" fill-rule="evenodd">
        <g id="RAW-(Typography)-Copy" transform="translate(-298.000000, -366.000000)" fill="#484848">
            <path d="M460.505,377.365 C460.154998,377.925003 459.787502,378.344999 459.4025,378.625 C459.017498,378.905001 458.52167,379.045 457.915,379.045 C457.378331,379.045 456.800836,378.875835 456.1825,378.5375 C455.564164,378.199165 454.864171,377.820002 454.0825,377.4 C453.300829,376.979998 452.408338,376.600835 451.405,376.2625 C450.401662,375.924165 449.25834,375.755 447.975,375.755 C445.758322,375.755 444.107505,376.227495 443.0225,377.1725 C441.937495,378.117505 441.395,379.394992 441.395,381.005 C441.395,382.031672 441.721663,382.88333 442.375,383.56 C443.028337,384.23667 443.885828,384.819998 444.9475,385.31 C446.009172,385.800002 447.222493,386.249165 448.5875,386.6575 C449.952507,387.065835 451.34666,387.520831 452.77,388.0225 C454.19334,388.524169 455.587493,389.11333 456.9525,389.79 C458.317507,390.46667 459.530828,391.329995 460.5925,392.38 C461.654172,393.430005 462.511663,394.707492 463.165,396.2125 C463.818337,397.717508 464.145,399.531656 464.145,401.655 C464.145,404.011678 463.736671,406.216656 462.92,408.27 C462.103329,410.323344 460.919174,412.114159 459.3675,413.6425 C457.815826,415.170841 455.902511,416.372496 453.6275,417.2475 C451.352489,418.122504 448.768348,418.56 445.875,418.56 C444.288325,418.56 442.672508,418.396668 441.0275,418.07 C439.382492,417.743332 437.790008,417.282503 436.25,416.6875 C434.709992,416.092497 433.26334,415.386671 431.91,414.57 C430.55666,413.753329 429.378338,412.843338 428.375,411.84 L431.875,406.31 C432.131668,405.889998 432.493331,405.551668 432.96,405.295 C433.426669,405.038332 433.928331,404.91 434.465,404.91 C435.165003,404.91 435.87083,405.131664 436.5825,405.575 C437.29417,406.018336 438.099162,406.508331 438.9975,407.045 C439.895838,407.581669 440.928327,408.071664 442.095,408.515 C443.261672,408.958336 444.638325,409.18 446.225,409.18 C448.371677,409.18 450.039994,408.707505 451.23,407.7625 C452.420006,406.817495 453.015,405.318344 453.015,403.265 C453.015,402.074994 452.688337,401.10667 452.035,400.36 C451.381663,399.61333 450.524172,398.995002 449.4625,398.505 C448.400828,398.014998 447.19334,397.583335 445.84,397.21 C444.48666,396.836665 443.09834,396.422502 441.675,395.9675 C440.25166,395.512498 438.86334,394.952503 437.51,394.2875 C436.15666,393.622497 434.949172,392.747505 433.8875,391.6625 C432.825828,390.577495 431.968337,389.224175 431.315,387.6025 C430.661663,385.980825 430.335,383.980012 430.335,381.6 C430.335,379.686657 430.719996,377.820009 431.49,376 C432.260004,374.179991 433.391659,372.55834 434.885,371.135 C436.378341,369.71166 438.209989,368.574171 440.38,367.7225 C442.550011,366.870829 445.034986,366.445 447.835,366.445 C449.398341,366.445 450.920826,366.567499 452.4025,366.8125 C453.884174,367.057501 455.289993,367.419164 456.62,367.8975 C457.950007,368.375836 459.192494,368.947497 460.3475,369.6125 C461.502506,370.277503 462.534995,371.029996 463.445,371.87 L460.505,377.365 Z M479.975,367.005 L489.915,367.005 C490.941672,367.005 491.799163,367.238331 492.4875,367.705 C493.175837,368.171669 493.624999,368.789996 493.835,369.56 L500.835,396.16 C501.068334,397.023338 501.301665,397.944995 501.535,398.925 C501.768334,399.905005 501.943333,400.931661 502.06,402.005 C502.293334,400.908328 502.549999,399.875838 502.83,398.9075 C503.110001,397.939162 503.378332,397.023338 503.635,396.16 L511.895,369.56 C512.105001,368.906663 512.554163,368.317503 513.2425,367.7925 C513.930837,367.267497 514.764995,367.005 515.745,367.005 L519.245,367.005 C520.271672,367.005 521.117497,367.232498 521.7825,367.6875 C522.447503,368.142502 522.908332,368.766663 523.165,369.56 L531.355,396.16 C531.611668,396.976671 531.879999,397.845829 532.16,398.7675 C532.440001,399.689171 532.684999,400.674995 532.895,401.725 C533.081668,400.698328 533.274166,399.718338 533.4725,398.785 C533.670834,397.851662 533.874999,396.976671 534.085,396.16 L541.085,369.56 C541.271668,368.88333 541.714996,368.288336 542.415,367.775 C543.115003,367.261664 543.954995,367.005 544.935,367.005 L554.245,367.005 L538.495,418 L527.785,418 L518.195,386.395 C518.031666,385.904998 517.862501,385.368336 517.6875,384.785 C517.512499,384.201664 517.343334,383.583337 517.18,382.93 C517.016666,383.583337 516.847501,384.201664 516.6725,384.785 C516.497499,385.368336 516.328334,385.904998 516.165,386.395 L506.435,418 L495.725,418 L479.975,367.005 Z M585.545,418 L573.645,418 L573.645,367.005 L585.545,367.005 L585.545,418 Z M641.625,367.005 L641.625,376.105 L620.695,376.105 L620.695,389.02 L638.125,389.02 L638.125,398.155 L620.695,398.155 L620.695,418 L608.795,418 L608.795,367.005 L641.625,367.005 Z M698.615,367.005 L698.615,376.385 L684.265,376.385 L684.265,418 L672.435,418 L672.435,376.385 L658.085,376.385 L658.085,367.005 L698.615,367.005 Z M376.53,459.315 C375.679996,460.675007 374.787505,461.694997 373.8525,462.375 C372.917495,463.055003 371.713341,463.395 370.24,463.395 C368.93666,463.395 367.534174,462.984171 366.0325,462.1625 C364.530826,461.340829 362.830843,460.420005 360.9325,459.4 C359.034157,458.379995 356.866679,457.459171 354.43,456.6375 C351.993321,455.815829 349.216682,455.405 346.1,455.405 C340.71664,455.405 336.707513,456.552489 334.0725,458.8475 C331.437487,461.142511 330.12,464.24498 330.12,468.155 C330.12,470.648346 330.913325,472.716658 332.5,474.36 C334.086675,476.003342 336.169154,477.419994 338.7475,478.61 C341.325846,479.800006 344.272483,480.890828 347.5875,481.8825 C350.902517,482.874172 354.288316,483.979161 357.745,485.1975 C361.201684,486.415839 364.587483,487.846658 367.9025,489.49 C371.217517,491.133342 374.164154,493.229987 376.7425,495.78 C379.320846,498.330013 381.403325,501.432482 382.99,505.0875 C384.576675,508.742518 385.37,513.148308 385.37,518.305 C385.37,524.028362 384.378343,529.383308 382.395,534.37 C380.411657,539.356692 377.535852,543.705815 373.7675,547.4175 C369.999148,551.129185 365.352528,554.047489 359.8275,556.1725 C354.302472,558.297511 348.026702,559.36 341,559.36 C337.146647,559.36 333.22252,558.963337 329.2275,558.17 C325.23248,557.376663 321.365019,556.257507 317.625,554.8125 C313.884981,553.367493 310.371683,551.653343 307.085,549.67 C303.798317,547.686657 300.936679,545.476679 298.5,543.04 L307,529.61 C307.623336,528.589995 308.501661,527.768336 309.635,527.145 C310.768339,526.521664 311.98666,526.21 313.29,526.21 C314.990008,526.21 316.704158,526.748328 318.4325,527.825 C320.160842,528.901672 322.115822,530.09166 324.2975,531.395 C326.479178,532.69834 328.986652,533.888328 331.82,534.965 C334.653347,536.041672 337.996647,536.58 341.85,536.58 C347.063359,536.58 351.114986,535.432511 354.005,533.1375 C356.895014,530.842489 358.34,527.201692 358.34,522.215 C358.34,519.324986 357.546675,516.973342 355.96,515.16 C354.373325,513.346658 352.290846,511.845006 349.7125,510.655 C347.134154,509.464994 344.201683,508.416671 340.915,507.51 C337.628317,506.603329 334.256684,505.597506 330.8,504.4925 C327.343316,503.387494 323.971683,502.027508 320.685,500.4125 C317.398317,498.797492 314.465846,496.672513 311.8875,494.0375 C309.309154,491.402487 307.226675,488.115853 305.64,484.1775 C304.053325,480.239147 303.26,475.380029 303.26,469.6 C303.26,464.95331 304.194991,460.420022 306.065,456 C307.935009,451.579978 310.683315,447.641684 314.31,444.185 C317.936685,440.728316 322.384974,437.965844 327.655,435.8975 C332.925026,433.829156 338.959966,432.795 345.76,432.795 C349.556686,432.795 353.254149,433.092497 356.8525,433.6875 C360.450851,434.282503 363.864984,435.160828 367.095,436.3225 C370.325016,437.484172 373.342486,438.872492 376.1475,440.4875 C378.952514,442.102508 381.459989,443.92999 383.67,445.97 L376.53,459.315 Z M428.38,516.605 L428.38,558 L399.65,558 L399.65,434.155 L443.34,434.155 C452.06671,434.155 459.560802,435.189156 465.8225,437.2575 C472.084198,439.325844 477.240813,442.173315 481.2925,445.8 C485.344187,449.426685 488.333324,453.704975 490.26,458.635 C492.186676,463.565025 493.15,468.891638 493.15,474.615 C493.15,480.791698 492.158343,486.458308 490.175,491.615 C488.191657,496.771692 485.16002,501.191648 481.08,504.875 C476.99998,508.558352 471.829198,511.434156 465.5675,513.5025 C459.305802,515.570844 451.896709,516.605 443.34,516.605 L428.38,516.605 Z M428.38,494.93 L443.34,494.93 C450.820037,494.93 456.203317,493.145018 459.49,489.575 C462.776683,486.004982 464.42,481.018365 464.42,474.615 C464.42,471.781653 463.995004,469.203345 463.145,466.88 C462.294996,464.556655 461.005842,462.559175 459.2775,460.8875 C457.549158,459.215825 455.367513,457.926671 452.7325,457.02 C450.097487,456.113329 446.966685,455.66 443.34,455.66 L428.38,455.66 L428.38,494.93 Z M630.34,496.035 C630.34,504.988378 628.795849,513.318295 625.7075,521.025 C622.619151,528.731705 618.270028,535.432472 612.66,541.1275 C607.049972,546.822528 600.29254,551.284984 592.3875,554.515 C584.48246,557.745016 575.713381,559.36 566.08,559.36 C556.446618,559.36 547.663373,557.745016 539.73,554.515 C531.796627,551.284984 525.010862,546.822528 519.3725,541.1275 C513.734138,535.432472 509.370849,528.731705 506.2825,521.025 C503.194151,513.318295 501.65,504.988378 501.65,496.035 C501.65,487.081622 503.194151,478.751705 506.2825,471.045 C509.370849,463.338295 513.734138,456.651695 519.3725,450.985 C525.010862,445.318305 531.796627,440.870016 539.73,437.64 C547.663373,434.409984 556.446618,432.795 566.08,432.795 C575.713381,432.795 584.48246,434.42415 592.3875,437.6825 C600.29254,440.94085 607.049972,445.403305 612.66,451.07 C618.270028,456.736695 622.619151,463.423295 625.7075,471.13 C628.795849,478.836705 630.34,487.138289 630.34,496.035 Z M600.93,496.035 C600.93,489.914969 600.136675,484.404191 598.55,479.5025 C596.963325,474.600809 594.682515,470.450017 591.7075,467.05 C588.732485,463.649983 585.091688,461.043342 580.785,459.23 C576.478312,457.416658 571.576694,456.51 566.08,456.51 C560.526639,456.51 555.582522,457.416658 551.2475,459.23 C546.912478,461.043342 543.257515,463.649983 540.2825,467.05 C537.307485,470.450017 535.026675,474.600809 533.44,479.5025 C531.853325,484.404191 531.06,489.914969 531.06,496.035 C531.06,502.211698 531.853325,507.750809 533.44,512.6525 C535.026675,517.554191 537.307485,521.704983 540.2825,525.105 C543.257515,528.505017 546.912478,531.097491 551.2475,532.8825 C555.582522,534.667509 560.526639,535.56 566.08,535.56 C571.576694,535.56 576.478312,534.667509 580.785,532.8825 C585.091688,531.097491 588.732485,528.505017 591.7075,525.105 C594.682515,521.704983 596.963325,517.554191 598.55,512.6525 C600.136675,507.750809 600.93,502.211698 600.93,496.035 Z M672.84,512.185 L672.84,558 L644.11,558 L644.11,434.155 L684.4,434.155 C693.353378,434.155 700.989135,435.075824 707.3075,436.9175 C713.625865,438.759176 718.78248,441.323317 722.7775,444.61 C726.77252,447.896683 729.676658,451.778311 731.49,456.255 C733.303342,460.731689 734.21,465.604974 734.21,470.875 C734.21,474.898353 733.671672,478.694982 732.595,482.265 C731.518328,485.835018 729.917511,489.135818 727.7925,492.1675 C725.667489,495.199182 723.060849,497.904988 719.9725,500.285 C716.884151,502.665012 713.328353,504.619992 709.305,506.15 C711.231676,507.113338 713.030825,508.303326 714.7025,509.72 C716.374175,511.136674 717.833327,512.86499 719.08,514.905 L745.43,558 L719.42,558 C714.603309,558 711.146677,556.186685 709.05,552.56 L688.48,516.605 C687.573329,515.018325 686.510839,513.885003 685.2925,513.205 C684.074161,512.524997 682.360011,512.185 680.15,512.185 L672.84,512.185 Z M672.84,492.38 L684.4,492.38 C688.31002,492.38 691.639153,491.884172 694.3875,490.8925 C697.135847,489.900828 699.388325,488.526675 701.145,486.77 C702.901675,485.013325 704.176663,482.959178 704.97,480.6075 C705.763337,478.255822 706.16,475.720014 706.16,473 C706.16,467.559973 704.389184,463.310015 700.8475,460.25 C697.305816,457.189985 691.82337,455.66 684.4,455.66 L672.84,455.66 L672.84,492.38 Z M841.99,434.155 L841.99,456.935 L807.14,456.935 L807.14,558 L778.41,558 L778.41,456.935 L743.56,456.935 L743.56,434.155 L841.99,434.155 Z" id="SWIFT-SPORT"></path>
        </g>
    </g>
</svg>