<?xml version="1.0" encoding="UTF-8"?>
<svg width="691px" height="128px" viewBox="0 0 691 128" version="1.1" xmlns="http://www.w3.org/2000/svg" xmlns:xlink="http://www.w3.org/1999/xlink">
    <!-- Generator: Sketch 42 (36781) - http://www.bohemiancoding.com/sketch -->
    <title>S-CROSS</title>
    <desc>Created with Sketch.</desc>
    <defs></defs>
    <g id="Page-1" stroke="none" stroke-width="1" fill="none" fill-rule="evenodd">
        <g id="Vector" transform="translate(-1362.000000, -1347.000000)" fill="#484848">
            <path d="M1440.315,1374.315 C1439.465,1375.67501 1438.5725,1376.695 1437.6375,1377.375 C1436.7025,1378.055 1435.49834,1378.395 1434.025,1378.395 C1432.72166,1378.395 1431.31917,1377.98417 1429.8175,1377.1625 C1428.31583,1376.34083 1426.61584,1375.42001 1424.7175,1374.4 C1422.81916,1373.37999 1420.65168,1372.45917 1418.215,1371.6375 C1415.77832,1370.81583 1413.00168,1370.405 1409.885,1370.405 C1404.50164,1370.405 1400.49251,1371.55249 1397.8575,1373.8475 C1395.22249,1376.14251 1393.905,1379.24498 1393.905,1383.155 C1393.905,1385.64835 1394.69833,1387.71666 1396.285,1389.36 C1397.87167,1391.00334 1399.95415,1392.41999 1402.5325,1393.61 C1405.11085,1394.80001 1408.05748,1395.89083 1411.3725,1396.8825 C1414.68752,1397.87417 1418.07332,1398.97916 1421.53,1400.1975 C1424.98668,1401.41584 1428.37248,1402.84666 1431.6875,1404.49 C1435.00252,1406.13334 1437.94915,1408.22999 1440.5275,1410.78 C1443.10585,1413.33001 1445.18833,1416.43248 1446.775,1420.0875 C1448.36167,1423.74252 1449.155,1428.14831 1449.155,1433.305 C1449.155,1439.02836 1448.16334,1444.38331 1446.18,1449.37 C1444.19666,1454.35669 1441.32085,1458.70581 1437.5525,1462.4175 C1433.78415,1466.12919 1429.13753,1469.04749 1423.6125,1471.1725 C1418.08747,1473.29751 1411.8117,1474.36 1404.785,1474.36 C1400.93165,1474.36 1397.00752,1473.96334 1393.0125,1473.17 C1389.01748,1472.37666 1385.15002,1471.25751 1381.41,1469.8125 C1377.66998,1468.36749 1374.15668,1466.65334 1370.87,1464.67 C1367.58332,1462.68666 1364.72168,1460.47668 1362.285,1458.04 L1370.785,1444.61 C1371.40834,1443.58999 1372.28666,1442.76834 1373.42,1442.145 C1374.55334,1441.52166 1375.77166,1441.21 1377.075,1441.21 C1378.77501,1441.21 1380.48916,1441.74833 1382.2175,1442.825 C1383.94584,1443.90167 1385.90082,1445.09166 1388.0825,1446.395 C1390.26418,1447.69834 1392.77165,1448.88833 1395.605,1449.965 C1398.43835,1451.04167 1401.78165,1451.58 1405.635,1451.58 C1410.84836,1451.58 1414.89999,1450.43251 1417.79,1448.1375 C1420.68001,1445.84249 1422.125,1442.20169 1422.125,1437.215 C1422.125,1434.32499 1421.33167,1431.97334 1419.745,1430.16 C1418.15833,1428.34666 1416.07585,1426.84501 1413.4975,1425.655 C1410.91915,1424.46499 1407.98668,1423.41667 1404.7,1422.51 C1401.41332,1421.60333 1398.04168,1420.59751 1394.585,1419.4925 C1391.12832,1418.38749 1387.75668,1417.02751 1384.47,1415.4125 C1381.18332,1413.79749 1378.25085,1411.67251 1375.6725,1409.0375 C1373.09415,1406.40249 1371.01167,1403.11585 1369.425,1399.1775 C1367.83833,1395.23915 1367.045,1390.38003 1367.045,1384.6 C1367.045,1379.95331 1367.97999,1375.42002 1369.85,1371 C1371.72001,1366.57998 1374.46832,1362.64168 1378.095,1359.185 C1381.72168,1355.72832 1386.16997,1352.96584 1391.44,1350.8975 C1396.71003,1348.82916 1402.74497,1347.795 1409.545,1347.795 C1413.34169,1347.795 1417.03915,1348.0925 1420.6375,1348.6875 C1424.23585,1349.2825 1427.64998,1350.16083 1430.88,1351.3225 C1434.11002,1352.48417 1437.12749,1353.87249 1439.9325,1355.4875 C1442.73751,1357.10251 1445.24499,1358.92999 1447.455,1360.97 L1440.315,1374.315 Z M1461.735,1410.695 L1507.635,1410.695 L1507.635,1431.945 L1461.735,1431.945 L1461.735,1410.695 Z M1609.55,1440.955 C1610.23,1440.955 1610.91,1441.0825 1611.59,1441.3375 C1612.27,1441.5925 1612.92166,1442.03166 1613.545,1442.655 L1624.935,1454.64 C1619.94831,1461.1567 1613.70087,1466.07248 1606.1925,1469.3875 C1598.68413,1472.70252 1589.80172,1474.36 1579.545,1474.36 C1570.13829,1474.36 1561.7092,1472.75918 1554.2575,1469.5575 C1546.8058,1466.35582 1540.48753,1461.93586 1535.3025,1456.2975 C1530.11747,1450.65914 1526.13668,1443.97254 1523.36,1436.2375 C1520.58332,1428.50246 1519.195,1420.10171 1519.195,1411.035 C1519.195,1401.79829 1520.78165,1393.31254 1523.955,1385.5775 C1527.12835,1377.84246 1531.56247,1371.17003 1537.2575,1365.56 C1542.95253,1359.94997 1549.76663,1355.58668 1557.7,1352.47 C1565.63337,1349.35332 1574.38829,1347.795 1583.965,1347.795 C1588.61169,1347.795 1592.98915,1348.20583 1597.0975,1349.0275 C1601.20585,1349.84917 1605.04498,1350.98249 1608.615,1352.4275 C1612.18502,1353.87251 1615.47165,1355.60082 1618.475,1357.6125 C1621.47835,1359.62418 1624.14166,1361.84832 1626.465,1364.285 L1616.775,1377.29 C1616.15166,1378.08334 1615.415,1378.80583 1614.565,1379.4575 C1613.715,1380.10917 1612.52501,1380.435 1610.995,1380.435 C1609.97499,1380.435 1609.01167,1380.20834 1608.105,1379.755 C1607.19833,1379.30166 1606.23501,1378.74917 1605.215,1378.0975 C1604.19499,1377.44583 1603.07584,1376.7375 1601.8575,1375.9725 C1600.63916,1375.2075 1599.19418,1374.49917 1597.5225,1373.8475 C1595.85082,1373.19583 1593.89584,1372.64334 1591.6575,1372.19 C1589.41916,1371.73666 1586.79835,1371.51 1583.795,1371.51 C1578.58164,1371.51 1573.82169,1372.43082 1569.515,1374.2725 C1565.20831,1376.11418 1561.51085,1378.74915 1558.4225,1382.1775 C1555.33415,1385.60585 1552.92584,1389.75664 1551.1975,1394.63 C1549.46916,1399.50336 1548.605,1404.97164 1548.605,1411.035 C1548.605,1417.3817 1549.46916,1423.01998 1551.1975,1427.95 C1552.92584,1432.88002 1555.27749,1437.03082 1558.2525,1440.4025 C1561.22751,1443.77418 1564.69831,1446.33832 1568.665,1448.095 C1572.63169,1449.85168 1576.88164,1450.73 1581.415,1450.73 C1584.02168,1450.73 1586.40166,1450.6025 1588.555,1450.3475 C1590.70834,1450.0925 1592.70582,1449.65334 1594.5475,1449.03 C1596.38918,1448.40666 1598.14582,1447.59917 1599.8175,1446.6075 C1601.48918,1445.61583 1603.17499,1444.38334 1604.875,1442.91 C1605.555,1442.34333 1606.29166,1441.87584 1607.085,1441.5075 C1607.87834,1441.13916 1608.7,1440.955 1609.55,1440.955 Z M1666.755,1427.185 L1666.755,1473 L1638.025,1473 L1638.025,1349.155 L1678.315,1349.155 C1687.26838,1349.155 1694.90414,1350.07582 1701.2225,1351.9175 C1707.54086,1353.75918 1712.69748,1356.32332 1716.6925,1359.61 C1720.68752,1362.89668 1723.59166,1366.77831 1725.405,1371.255 C1727.21834,1375.73169 1728.125,1380.60497 1728.125,1385.875 C1728.125,1389.89835 1727.58667,1393.69498 1726.51,1397.265 C1725.43333,1400.83502 1723.83251,1404.13582 1721.7075,1407.1675 C1719.58249,1410.19918 1716.97585,1412.90499 1713.8875,1415.285 C1710.79915,1417.66501 1707.24335,1419.61999 1703.22,1421.15 C1705.14668,1422.11334 1706.94582,1423.30333 1708.6175,1424.72 C1710.28918,1426.13667 1711.74833,1427.86499 1712.995,1429.905 L1739.345,1473 L1713.335,1473 C1708.51831,1473 1705.06168,1471.18668 1702.965,1467.56 L1682.395,1431.605 C1681.48833,1430.01833 1680.42584,1428.885 1679.2075,1428.205 C1677.98916,1427.525 1676.27501,1427.185 1674.065,1427.185 L1666.755,1427.185 Z M1666.755,1407.38 L1678.315,1407.38 C1682.22502,1407.38 1685.55415,1406.88417 1688.3025,1405.8925 C1691.05085,1404.90083 1693.30332,1403.52668 1695.06,1401.77 C1696.81668,1400.01332 1698.09166,1397.95918 1698.885,1395.6075 C1699.67834,1393.25582 1700.075,1390.72001 1700.075,1388 C1700.075,1382.55997 1698.30418,1378.31002 1694.7625,1375.25 C1691.22082,1372.18998 1685.73837,1370.66 1678.315,1370.66 L1666.755,1370.66 L1666.755,1407.38 Z M1869.055,1411.035 C1869.055,1419.98838 1867.51085,1428.31829 1864.4225,1436.025 C1861.33415,1443.73171 1856.98503,1450.43247 1851.375,1456.1275 C1845.76497,1461.82253 1839.00754,1466.28498 1831.1025,1469.515 C1823.19746,1472.74502 1814.42838,1474.36 1804.795,1474.36 C1795.16162,1474.36 1786.37837,1472.74502 1778.445,1469.515 C1770.51163,1466.28498 1763.72586,1461.82253 1758.0875,1456.1275 C1752.44914,1450.43247 1748.08585,1443.73171 1744.9975,1436.025 C1741.90915,1428.31829 1740.365,1419.98838 1740.365,1411.035 C1740.365,1402.08162 1741.90915,1393.75171 1744.9975,1386.045 C1748.08585,1378.33829 1752.44914,1371.6517 1758.0875,1365.985 C1763.72586,1360.31831 1770.51163,1355.87002 1778.445,1352.64 C1786.37837,1349.40998 1795.16162,1347.795 1804.795,1347.795 C1814.42838,1347.795 1823.19746,1349.42415 1831.1025,1352.6825 C1839.00754,1355.94085 1845.76497,1360.40331 1851.375,1366.07 C1856.98503,1371.7367 1861.33415,1378.42329 1864.4225,1386.13 C1867.51085,1393.83671 1869.055,1402.13829 1869.055,1411.035 Z M1839.645,1411.035 C1839.645,1404.91497 1838.85167,1399.40419 1837.265,1394.5025 C1835.67833,1389.60081 1833.39751,1385.45002 1830.4225,1382.05 C1827.44749,1378.64998 1823.80669,1376.04334 1819.5,1374.23 C1815.19331,1372.41666 1810.29169,1371.51 1804.795,1371.51 C1799.24164,1371.51 1794.29752,1372.41666 1789.9625,1374.23 C1785.62748,1376.04334 1781.97251,1378.64998 1778.9975,1382.05 C1776.02249,1385.45002 1773.74167,1389.60081 1772.155,1394.5025 C1770.56833,1399.40419 1769.775,1404.91497 1769.775,1411.035 C1769.775,1417.2117 1770.56833,1422.75081 1772.155,1427.6525 C1773.74167,1432.55419 1776.02249,1436.70498 1778.9975,1440.105 C1781.97251,1443.50502 1785.62748,1446.09749 1789.9625,1447.8825 C1794.29752,1449.66751 1799.24164,1450.56 1804.795,1450.56 C1810.29169,1450.56 1815.19331,1449.66751 1819.5,1447.8825 C1823.80669,1446.09749 1827.44749,1443.50502 1830.4225,1440.105 C1833.39751,1436.70498 1835.67833,1432.55419 1837.265,1427.6525 C1838.85167,1422.75081 1839.645,1417.2117 1839.645,1411.035 Z M1951.845,1374.315 C1950.995,1375.67501 1950.1025,1376.695 1949.1675,1377.375 C1948.2325,1378.055 1947.02834,1378.395 1945.555,1378.395 C1944.25166,1378.395 1942.84917,1377.98417 1941.3475,1377.1625 C1939.84583,1376.34083 1938.14584,1375.42001 1936.2475,1374.4 C1934.34916,1373.37999 1932.18168,1372.45917 1929.745,1371.6375 C1927.30832,1370.81583 1924.53168,1370.405 1921.415,1370.405 C1916.03164,1370.405 1912.02251,1371.55249 1909.3875,1373.8475 C1906.75249,1376.14251 1905.435,1379.24498 1905.435,1383.155 C1905.435,1385.64835 1906.22833,1387.71666 1907.815,1389.36 C1909.40167,1391.00334 1911.48415,1392.41999 1914.0625,1393.61 C1916.64085,1394.80001 1919.58748,1395.89083 1922.9025,1396.8825 C1926.21752,1397.87417 1929.60332,1398.97916 1933.06,1400.1975 C1936.51668,1401.41584 1939.90248,1402.84666 1943.2175,1404.49 C1946.53252,1406.13334 1949.47915,1408.22999 1952.0575,1410.78 C1954.63585,1413.33001 1956.71833,1416.43248 1958.305,1420.0875 C1959.89167,1423.74252 1960.685,1428.14831 1960.685,1433.305 C1960.685,1439.02836 1959.69334,1444.38331 1957.71,1449.37 C1955.72666,1454.35669 1952.85085,1458.70581 1949.0825,1462.4175 C1945.31415,1466.12919 1940.66753,1469.04749 1935.1425,1471.1725 C1929.61747,1473.29751 1923.3417,1474.36 1916.315,1474.36 C1912.46165,1474.36 1908.53752,1473.96334 1904.5425,1473.17 C1900.54748,1472.37666 1896.68002,1471.25751 1892.94,1469.8125 C1889.19998,1468.36749 1885.68668,1466.65334 1882.4,1464.67 C1879.11332,1462.68666 1876.25168,1460.47668 1873.815,1458.04 L1882.315,1444.61 C1882.93834,1443.58999 1883.81666,1442.76834 1884.95,1442.145 C1886.08334,1441.52166 1887.30166,1441.21 1888.605,1441.21 C1890.30501,1441.21 1892.01916,1441.74833 1893.7475,1442.825 C1895.47584,1443.90167 1897.43082,1445.09166 1899.6125,1446.395 C1901.79418,1447.69834 1904.30165,1448.88833 1907.135,1449.965 C1909.96835,1451.04167 1913.31165,1451.58 1917.165,1451.58 C1922.37836,1451.58 1926.42999,1450.43251 1929.32,1448.1375 C1932.21001,1445.84249 1933.655,1442.20169 1933.655,1437.215 C1933.655,1434.32499 1932.86167,1431.97334 1931.275,1430.16 C1929.68833,1428.34666 1927.60585,1426.84501 1925.0275,1425.655 C1922.44915,1424.46499 1919.51668,1423.41667 1916.23,1422.51 C1912.94332,1421.60333 1909.57168,1420.59751 1906.115,1419.4925 C1902.65832,1418.38749 1899.28668,1417.02751 1896,1415.4125 C1892.71332,1413.79749 1889.78085,1411.67251 1887.2025,1409.0375 C1884.62415,1406.40249 1882.54167,1403.11585 1880.955,1399.1775 C1879.36833,1395.23915 1878.575,1390.38003 1878.575,1384.6 C1878.575,1379.95331 1879.50999,1375.42002 1881.38,1371 C1883.25001,1366.57998 1885.99832,1362.64168 1889.625,1359.185 C1893.25168,1355.72832 1897.69997,1352.96584 1902.97,1350.8975 C1908.24003,1348.82916 1914.27497,1347.795 1921.075,1347.795 C1924.87169,1347.795 1928.56915,1348.0925 1932.1675,1348.6875 C1935.76585,1349.2825 1939.17998,1350.16083 1942.41,1351.3225 C1945.64002,1352.48417 1948.65749,1353.87249 1951.4625,1355.4875 C1954.26751,1357.10251 1956.77499,1358.92999 1958.985,1360.97 L1951.845,1374.315 Z M2043.985,1374.315 C2043.135,1375.67501 2042.2425,1376.695 2041.3075,1377.375 C2040.3725,1378.055 2039.16834,1378.395 2037.695,1378.395 C2036.39166,1378.395 2034.98917,1377.98417 2033.4875,1377.1625 C2031.98583,1376.34083 2030.28584,1375.42001 2028.3875,1374.4 C2026.48916,1373.37999 2024.32168,1372.45917 2021.885,1371.6375 C2019.44832,1370.81583 2016.67168,1370.405 2013.555,1370.405 C2008.17164,1370.405 2004.16251,1371.55249 2001.5275,1373.8475 C1998.89249,1376.14251 1997.575,1379.24498 1997.575,1383.155 C1997.575,1385.64835 1998.36833,1387.71666 1999.955,1389.36 C2001.54167,1391.00334 2003.62415,1392.41999 2006.2025,1393.61 C2008.78085,1394.80001 2011.72748,1395.89083 2015.0425,1396.8825 C2018.35752,1397.87417 2021.74332,1398.97916 2025.2,1400.1975 C2028.65668,1401.41584 2032.04248,1402.84666 2035.3575,1404.49 C2038.67252,1406.13334 2041.61915,1408.22999 2044.1975,1410.78 C2046.77585,1413.33001 2048.85833,1416.43248 2050.445,1420.0875 C2052.03167,1423.74252 2052.825,1428.14831 2052.825,1433.305 C2052.825,1439.02836 2051.83334,1444.38331 2049.85,1449.37 C2047.86666,1454.35669 2044.99085,1458.70581 2041.2225,1462.4175 C2037.45415,1466.12919 2032.80753,1469.04749 2027.2825,1471.1725 C2021.75747,1473.29751 2015.4817,1474.36 2008.455,1474.36 C2004.60165,1474.36 2000.67752,1473.96334 1996.6825,1473.17 C1992.68748,1472.37666 1988.82002,1471.25751 1985.08,1469.8125 C1981.33998,1468.36749 1977.82668,1466.65334 1974.54,1464.67 C1971.25332,1462.68666 1968.39168,1460.47668 1965.955,1458.04 L1974.455,1444.61 C1975.07834,1443.58999 1975.95666,1442.76834 1977.09,1442.145 C1978.22334,1441.52166 1979.44166,1441.21 1980.745,1441.21 C1982.44501,1441.21 1984.15916,1441.74833 1985.8875,1442.825 C1987.61584,1443.90167 1989.57082,1445.09166 1991.7525,1446.395 C1993.93418,1447.69834 1996.44165,1448.88833 1999.275,1449.965 C2002.10835,1451.04167 2005.45165,1451.58 2009.305,1451.58 C2014.51836,1451.58 2018.56999,1450.43251 2021.46,1448.1375 C2024.35001,1445.84249 2025.795,1442.20169 2025.795,1437.215 C2025.795,1434.32499 2025.00167,1431.97334 2023.415,1430.16 C2021.82833,1428.34666 2019.74585,1426.84501 2017.1675,1425.655 C2014.58915,1424.46499 2011.65668,1423.41667 2008.37,1422.51 C2005.08332,1421.60333 2001.71168,1420.59751 1998.255,1419.4925 C1994.79832,1418.38749 1991.42668,1417.02751 1988.14,1415.4125 C1984.85332,1413.79749 1981.92085,1411.67251 1979.3425,1409.0375 C1976.76415,1406.40249 1974.68167,1403.11585 1973.095,1399.1775 C1971.50833,1395.23915 1970.715,1390.38003 1970.715,1384.6 C1970.715,1379.95331 1971.64999,1375.42002 1973.52,1371 C1975.39001,1366.57998 1978.13832,1362.64168 1981.765,1359.185 C1985.39168,1355.72832 1989.83997,1352.96584 1995.11,1350.8975 C2000.38003,1348.82916 2006.41497,1347.795 2013.215,1347.795 C2017.01169,1347.795 2020.70915,1348.0925 2024.3075,1348.6875 C2027.90585,1349.2825 2031.31998,1350.16083 2034.55,1351.3225 C2037.78002,1352.48417 2040.79749,1353.87249 2043.6025,1355.4875 C2046.40751,1357.10251 2048.91499,1358.92999 2051.125,1360.97 L2043.985,1374.315 Z" id="S-CROSS"></path>
        </g>
    </g>
</svg>