<?xml version="1.0" encoding="UTF-8"?>
<svg width="434px" height="128px" viewBox="0 0 434 128" version="1.1" xmlns="http://www.w3.org/2000/svg" xmlns:xlink="http://www.w3.org/1999/xlink">
    <!-- Generator: Sketch 42 (36781) - http://www.bohemiancoding.com/sketch -->
    <title>IGNIS</title>
    <desc>Created with Sketch.</desc>
    <defs></defs>
    <g id="Page-1" stroke="none" stroke-width="1" fill="none" fill-rule="evenodd">
        <g id="Vector" transform="translate(-1497.000000, -696.000000)" fill="#484848">
            <path d="M1525.9,822 L1497,822 L1497,698.155 L1525.9,698.155 L1525.9,822 Z M1607.16,801.26 C1611.12669,801.26 1614.63998,800.920003 1617.7,800.24 C1620.76002,799.559997 1623.64999,798.653339 1626.37,797.52 L1626.37,778.735 L1614.13,778.735 C1612.31666,778.735 1610.90001,778.253338 1609.88,777.29 C1608.85999,776.326662 1608.35,775.108341 1608.35,773.635 L1608.35,757.825 L1652.38,757.825 L1652.38,810.1 C1649.20665,812.423345 1645.90585,814.420825 1642.4775,816.0925 C1639.04915,817.764175 1635.39419,819.138328 1631.5125,820.215 C1627.63081,821.291672 1623.49419,822.084997 1619.1025,822.595 C1614.71081,823.105003 1609.99336,823.36 1604.95,823.36 C1595.88329,823.36 1587.49671,821.759183 1579.79,818.5575 C1572.08329,815.355817 1565.41086,810.935862 1559.7725,805.2975 C1554.13414,799.659138 1549.71418,792.972539 1546.5125,785.2375 C1543.31082,777.502461 1541.71,769.101712 1541.71,760.035 C1541.71,750.798287 1543.23998,742.312539 1546.3,734.5775 C1549.36002,726.842461 1553.73747,720.170028 1559.4325,714.56 C1565.12753,708.949972 1572.01246,704.586682 1580.0875,701.47 C1588.16254,698.353318 1597.18662,696.795 1607.16,696.795 C1612.31669,696.795 1617.16164,697.219996 1621.695,698.07 C1626.22836,698.920004 1630.40748,700.081659 1634.2325,701.555 C1638.05752,703.028341 1641.55665,704.78499 1644.73,706.825 C1647.90335,708.86501 1650.73665,711.074988 1653.23,713.455 L1644.9,726.12 C1644.10666,727.310006 1643.15751,728.244997 1642.0525,728.925 C1640.94749,729.605003 1639.74334,729.945 1638.44,729.945 C1636.73999,729.945 1634.98334,729.378339 1633.17,728.245 C1630.90332,726.884993 1628.76418,725.709172 1626.7525,724.7175 C1624.74082,723.725828 1622.68668,722.918336 1620.59,722.295 C1618.49332,721.671664 1616.28334,721.218335 1613.96,720.935 C1611.63666,720.651665 1609.03001,720.51 1606.14,720.51 C1600.75664,720.51 1595.91169,721.459157 1591.605,723.3575 C1587.29831,725.255843 1583.62918,727.933316 1580.5975,731.39 C1577.56582,734.846684 1575.22834,738.997476 1573.585,743.8425 C1571.94166,748.687524 1571.12,754.08497 1571.12,760.035 C1571.12,766.608366 1572.02666,772.444975 1573.84,777.545 C1575.65334,782.645026 1578.16082,786.951649 1581.3625,790.465 C1584.56418,793.978351 1588.36081,796.655824 1592.7525,798.4975 C1597.14419,800.339176 1601.94664,801.26 1607.16,801.26 Z M1685.02,698.155 C1686.26667,698.155 1687.315,698.211666 1688.165,698.325 C1689.015,698.438334 1689.78,698.650832 1690.46,698.9625 C1691.14,699.274168 1691.79166,699.713331 1692.415,700.28 C1693.03834,700.84667 1693.74666,701.611662 1694.54,702.575 L1753.36,776.95 C1753.13333,774.569988 1752.96333,772.260845 1752.85,770.0225 C1752.73667,767.784155 1752.68,765.673343 1752.68,763.69 L1752.68,698.155 L1778.01,698.155 L1778.01,822 L1763.05,822 C1760.83999,822 1758.97001,821.660003 1757.44,820.98 C1755.90999,820.299997 1754.43667,819.053342 1753.02,817.24 L1694.625,743.46 C1694.795,745.613344 1694.93667,747.724156 1695.05,749.7925 C1695.16333,751.860844 1695.22,753.801658 1695.22,755.615 L1695.22,822 L1669.89,822 L1669.89,698.155 L1685.02,698.155 Z M1829.86,822 L1800.96,822 L1800.96,698.155 L1829.86,698.155 L1829.86,822 Z M1921.83,723.315 C1920.98,724.675007 1920.0875,725.694997 1919.1525,726.375 C1918.2175,727.055003 1917.01334,727.395 1915.54,727.395 C1914.23666,727.395 1912.83417,726.984171 1911.3325,726.1625 C1909.83083,725.340829 1908.13084,724.420005 1906.2325,723.4 C1904.33416,722.379995 1902.16668,721.459171 1899.73,720.6375 C1897.29332,719.815829 1894.51668,719.405 1891.4,719.405 C1886.01664,719.405 1882.00751,720.552489 1879.3725,722.8475 C1876.73749,725.142511 1875.42,728.24498 1875.42,732.155 C1875.42,734.648346 1876.21333,736.716658 1877.8,738.36 C1879.38667,740.003342 1881.46915,741.419994 1884.0475,742.61 C1886.62585,743.800006 1889.57248,744.890828 1892.8875,745.8825 C1896.20252,746.874172 1899.58832,747.979161 1903.045,749.1975 C1906.50168,750.415839 1909.88748,751.846658 1913.2025,753.49 C1916.51752,755.133342 1919.46415,757.229987 1922.0425,759.78 C1924.62085,762.330013 1926.70333,765.432482 1928.29,769.0875 C1929.87667,772.742518 1930.67,777.148308 1930.67,782.305 C1930.67,788.028362 1929.67834,793.383308 1927.695,798.37 C1925.71166,803.356692 1922.83585,807.705815 1919.0675,811.4175 C1915.29915,815.129185 1910.65253,818.047489 1905.1275,820.1725 C1899.60247,822.297511 1893.3267,823.36 1886.3,823.36 C1882.44665,823.36 1878.52252,822.963337 1874.5275,822.17 C1870.53248,821.376663 1866.66502,820.257507 1862.925,818.8125 C1859.18498,817.367493 1855.67168,815.653343 1852.385,813.67 C1849.09832,811.686657 1846.23668,809.476679 1843.8,807.04 L1852.3,793.61 C1852.92334,792.589995 1853.80166,791.768336 1854.935,791.145 C1856.06834,790.521664 1857.28666,790.21 1858.59,790.21 C1860.29001,790.21 1862.00416,790.748328 1863.7325,791.825 C1865.46084,792.901672 1867.41582,794.09166 1869.5975,795.395 C1871.77918,796.69834 1874.28665,797.888328 1877.12,798.965 C1879.95335,800.041672 1883.29665,800.58 1887.15,800.58 C1892.36336,800.58 1896.41499,799.432511 1899.305,797.1375 C1902.19501,794.842489 1903.64,791.201692 1903.64,786.215 C1903.64,783.324986 1902.84667,780.973342 1901.26,779.16 C1899.67333,777.346658 1897.59085,775.845006 1895.0125,774.655 C1892.43415,773.464994 1889.50168,772.416671 1886.215,771.51 C1882.92832,770.603329 1879.55668,769.597506 1876.1,768.4925 C1872.64332,767.387494 1869.27168,766.027508 1865.985,764.4125 C1862.69832,762.797492 1859.76585,760.672513 1857.1875,758.0375 C1854.60915,755.402487 1852.52667,752.115853 1850.94,748.1775 C1849.35333,744.239147 1848.56,739.380029 1848.56,733.6 C1848.56,728.95331 1849.49499,724.420022 1851.365,720 C1853.23501,715.579978 1855.98332,711.641684 1859.61,708.185 C1863.23668,704.728316 1867.68497,701.965844 1872.955,699.8975 C1878.22503,697.829156 1884.25997,696.795 1891.06,696.795 C1894.85669,696.795 1898.55415,697.092497 1902.1525,697.6875 C1905.75085,698.282503 1909.16498,699.160828 1912.395,700.3225 C1915.62502,701.484172 1918.64249,702.872492 1921.4475,704.4875 C1924.25251,706.102508 1926.75999,707.92999 1928.97,709.97 L1921.83,723.315 Z" id="IGNIS"></path>
        </g>
    </g>
</svg>