<?xml version="1.0" encoding="UTF-8"?>
<svg width="523px" height="128px" viewBox="0 0 523 128" version="1.1" xmlns="http://www.w3.org/2000/svg" xmlns:xlink="http://www.w3.org/1999/xlink">
    <!-- Generator: Sketch 42 (36781) - http://www.bohemiancoding.com/sketch -->
    <title>SWIFT</title>
    <desc>Created with Sketch.</desc>
    <defs></defs>
    <g id="Page-1" stroke="none" stroke-width="1" fill="none" fill-rule="evenodd">
        <g id="Vector" transform="translate(-1447.000000, -1021.000000)" fill="#484848">
            <path d="M1525.655,1048.315 C1524.805,1049.67501 1523.9125,1050.695 1522.9775,1051.375 C1522.0425,1052.055 1520.83834,1052.395 1519.365,1052.395 C1518.06166,1052.395 1516.65917,1051.98417 1515.1575,1051.1625 C1513.65583,1050.34083 1511.95584,1049.42001 1510.0575,1048.4 C1508.15916,1047.37999 1505.99168,1046.45917 1503.555,1045.6375 C1501.11832,1044.81583 1498.34168,1044.405 1495.225,1044.405 C1489.84164,1044.405 1485.83251,1045.55249 1483.1975,1047.8475 C1480.56249,1050.14251 1479.245,1053.24498 1479.245,1057.155 C1479.245,1059.64835 1480.03833,1061.71666 1481.625,1063.36 C1483.21167,1065.00334 1485.29415,1066.41999 1487.8725,1067.61 C1490.45085,1068.80001 1493.39748,1069.89083 1496.7125,1070.8825 C1500.02752,1071.87417 1503.41332,1072.97916 1506.87,1074.1975 C1510.32668,1075.41584 1513.71248,1076.84666 1517.0275,1078.49 C1520.34252,1080.13334 1523.28915,1082.22999 1525.8675,1084.78 C1528.44585,1087.33001 1530.52833,1090.43248 1532.115,1094.0875 C1533.70167,1097.74252 1534.495,1102.14831 1534.495,1107.305 C1534.495,1113.02836 1533.50334,1118.38331 1531.52,1123.37 C1529.53666,1128.35669 1526.66085,1132.70581 1522.8925,1136.4175 C1519.12415,1140.12919 1514.47753,1143.04749 1508.9525,1145.1725 C1503.42747,1147.29751 1497.1517,1148.36 1490.125,1148.36 C1486.27165,1148.36 1482.34752,1147.96334 1478.3525,1147.17 C1474.35748,1146.37666 1470.49002,1145.25751 1466.75,1143.8125 C1463.00998,1142.36749 1459.49668,1140.65334 1456.21,1138.67 C1452.92332,1136.68666 1450.06168,1134.47668 1447.625,1132.04 L1456.125,1118.61 C1456.74834,1117.58999 1457.62666,1116.76834 1458.76,1116.145 C1459.89334,1115.52166 1461.11166,1115.21 1462.415,1115.21 C1464.11501,1115.21 1465.82916,1115.74833 1467.5575,1116.825 C1469.28584,1117.90167 1471.24082,1119.09166 1473.4225,1120.395 C1475.60418,1121.69834 1478.11165,1122.88833 1480.945,1123.965 C1483.77835,1125.04167 1487.12165,1125.58 1490.975,1125.58 C1496.18836,1125.58 1500.23999,1124.43251 1503.13,1122.1375 C1506.02001,1119.84249 1507.465,1116.20169 1507.465,1111.215 C1507.465,1108.32499 1506.67167,1105.97334 1505.085,1104.16 C1503.49833,1102.34666 1501.41585,1100.84501 1498.8375,1099.655 C1496.25915,1098.46499 1493.32668,1097.41667 1490.04,1096.51 C1486.75332,1095.60333 1483.38168,1094.59751 1479.925,1093.4925 C1476.46832,1092.38749 1473.09668,1091.02751 1469.81,1089.4125 C1466.52332,1087.79749 1463.59085,1085.67251 1461.0125,1083.0375 C1458.43415,1080.40249 1456.35167,1077.11585 1454.765,1073.1775 C1453.17833,1069.23915 1452.385,1064.38003 1452.385,1058.6 C1452.385,1053.95331 1453.31999,1049.42002 1455.19,1045 C1457.06001,1040.57998 1459.80832,1036.64168 1463.435,1033.185 C1467.06168,1029.72832 1471.50997,1026.96584 1476.78,1024.8975 C1482.05003,1022.82916 1488.08497,1021.795 1494.885,1021.795 C1498.68169,1021.795 1502.37915,1022.0925 1505.9775,1022.6875 C1509.57585,1023.2825 1512.98998,1024.16083 1516.22,1025.3225 C1519.45002,1026.48417 1522.46749,1027.87249 1525.2725,1029.4875 C1528.07751,1031.10251 1530.58499,1032.92999 1532.795,1034.97 L1525.655,1048.315 Z M1539.425,1023.155 L1563.565,1023.155 C1566.05835,1023.155 1568.14082,1023.72166 1569.8125,1024.855 C1571.48418,1025.98834 1572.575,1027.48999 1573.085,1029.36 L1590.085,1093.96 C1590.65167,1096.05668 1591.21833,1098.29499 1591.785,1100.675 C1592.35167,1103.05501 1592.77667,1105.54832 1593.06,1108.155 C1593.62667,1105.49165 1594.25,1102.98418 1594.93,1100.6325 C1595.61,1098.28082 1596.26166,1096.05668 1596.885,1093.96 L1616.945,1029.36 C1617.455,1027.77333 1618.54582,1026.34251 1620.2175,1025.0675 C1621.88918,1023.79249 1623.91499,1023.155 1626.295,1023.155 L1634.795,1023.155 C1637.28835,1023.155 1639.34249,1023.70749 1640.9575,1024.8125 C1642.57251,1025.91751 1643.69166,1027.43332 1644.315,1029.36 L1664.205,1093.96 C1664.82834,1095.94334 1665.48,1098.05416 1666.16,1100.2925 C1666.84,1102.53084 1667.435,1104.92499 1667.945,1107.475 C1668.39834,1104.98165 1668.86583,1102.60168 1669.3475,1100.335 C1669.82917,1098.06832 1670.325,1095.94334 1670.835,1093.96 L1687.835,1029.36 C1688.28834,1027.71666 1689.36499,1026.27167 1691.065,1025.025 C1692.76501,1023.77833 1694.80499,1023.155 1697.185,1023.155 L1719.795,1023.155 L1681.545,1147 L1655.535,1147 L1632.245,1070.245 C1631.84833,1069.05499 1631.4375,1067.75167 1631.0125,1066.335 C1630.5875,1064.91833 1630.17667,1063.41667 1629.78,1061.83 C1629.38333,1063.41667 1628.9725,1064.91833 1628.5475,1066.335 C1628.1225,1067.75167 1627.71167,1069.05499 1627.315,1070.245 L1603.685,1147 L1577.675,1147 L1539.425,1023.155 Z M1762.295,1147 L1733.395,1147 L1733.395,1023.155 L1762.295,1023.155 L1762.295,1147 Z M1864.975,1023.155 L1864.975,1045.255 L1814.145,1045.255 L1814.145,1076.62 L1856.475,1076.62 L1856.475,1098.805 L1814.145,1098.805 L1814.145,1147 L1785.245,1147 L1785.245,1023.155 L1864.975,1023.155 Z M1969.865,1023.155 L1969.865,1045.935 L1935.015,1045.935 L1935.015,1147 L1906.285,1147 L1906.285,1045.935 L1871.435,1045.935 L1871.435,1023.155 L1969.865,1023.155 Z" id="SWIFT"></path>
        </g>
    </g>
</svg>